<svg aria-hidden="true" style="position:absolute;width:0;height:0;overflow:hidden" xmlns="http://www.w3.org/2000/svg">
  <defs>
    <symbol id="logo" viewBox="0 0 81 32">
      <path d="M67.531 17.104c-.066 3.565.719 5.453 3.712 5.453 2.989 0 3.418-3.216 3.418-5.664 0-2.449-.567-4.827-3.707-4.827-1.926 0-3.349 1.469-3.423 5.038zM61.474 32V7.871h6.131v.979c0 1.306.537.767.969.258.072-.085 1.439-1.727 4.516-1.727 3.068 0 7.841 2.098 7.841 9.512 0 5.735-2.847 9.93-7.765 9.93-2.71 0-4.276-1.047-4.635-1.47-.359-.417-.857-.489-.857 0v6.646h-6.2zM14.088.04h6.627v17.064c0 2.935-1.284 9.092-10.475 9.092S.051 20.458.051 17.243v-3.147h6.413v3.076c0 1.888 1.283 3.636 3.704 3.636 2.422 0 3.919-1.328 3.919-3.565V.04zm20.487 14.475c0-1.75-.995-3.428-3.276-3.428-2.209 0-2.993 1.537-2.993 3.428h6.269zM30.66 7.171c5.204 0 9.763 1.958 9.763 10.98H28.097c0 2.867 1.21 4.057 3.348 4.057s2.85-1.68 2.85-1.68h6.058c0 2.589-3.634 6.085-9.122 6.016-6.269 0-9.333-4.546-9.333-9.232 0-4.688 2.706-10.14 8.763-10.14zm23.619 7.344c0-1.75-.997-3.428-3.277-3.428-2.208 0-2.994 1.537-2.994 3.428h6.271zm-3.914-7.344c5.204 0 9.761 1.958 9.761 10.98H47.801c0 2.867 1.211 4.057 3.35 4.057 2.136 0 2.849-1.68 2.849-1.68h6.058c0 2.589-3.635 6.085-9.121 6.016-6.272 0-9.337-4.546-9.337-9.232 0-4.688 2.709-10.14 8.764-10.14z"/>
    </symbol>
    <symbol id="arrow" viewBox="0 0 19 32">
      <path d="m15.9 31.412 2.25-2.25L4.875 16 18.15 2.838 15.9.588.488 16 15.9 31.413z"/>
    </symbol>
    <symbol id="back" viewBox="0 0 70 32">
      <path d="M4.692 25.296h3.49a6.858 6.858 0 0 0 13.498 0h26.121a6.858 6.858 0 0 0 13.498 0h2.925c.888 0 1.756-.263 2.495-.755l.779-.519a2.748 2.748 0 0 0 1.223-2.286v-7.395a6.566 6.566 0 0 0-4.678-6.288l-.088-.026a18.254 18.254 0 0 1-4.887-2.301 5.468 5.468 0 0 1 5.884-2.766l2.616.523a1.218 1.218 0 1 0 .478-2.39L65.43.57a7.906 7.906 0 0 0-8.324 3.676A20.667 20.667 0 0 0 44.559.002h-9.014c-3.249 0-6.425.962-9.129 2.764l-6.974 4.649a10.968 10.968 0 0 1-5.748 1.837l-4.295.132a9.7 9.7 0 0 0-9.4 9.694v1.523a4.694 4.694 0 0 0 4.694 4.695zM35.545 2.438c-2.768 0-5.474.819-7.776 2.354l-6.974 4.649a13.406 13.406 0 0 1-7.026 2.246l-4.295.132a7.26 7.26 0 0 0-7.038 7.258V20.6a2.256 2.256 0 0 0 2.256 2.256h3.49a6.858 6.858 0 0 1 13.498 0h26.121a6.858 6.858 0 0 1 13.498 0h2.925c.406 0 .804-.12 1.142-.346l.779-.519a.31.31 0 0 0 .138-.258v-7.395a4.125 4.125 0 0 0-2.941-3.952l-.088-.026a20.678 20.678 0 0 1-7.15-3.801 18.235 18.235 0 0 0-11.546-4.121h-9.014zM19.35 24.076a4.418 4.418 0 1 1-8.838 0 4.418 4.418 0 1 1 8.838 0zm39.619 0a4.418 4.418 0 1 1-8.838 0 4.418 4.418 0 1 1 8.838 0z"/>
    </symbol>
    <symbol id="front" viewBox="0 0 70 32">
      <path d="M4.694 25.296h3.49a6.858 6.858 0 0 0 13.498 0h26.121a6.858 6.858 0 0 0 13.498 0h2.925c.888 0 1.756-.263 2.495-.755l.779-.519a2.748 2.748 0 0 0 1.223-2.286v-7.395a6.566 6.566 0 0 0-4.678-6.288l-.088-.026a18.243 18.243 0 0 1-6.307-3.352A20.67 20.67 0 0 0 44.56.002h-9.014c-3.249 0-6.425.962-9.129 2.764l-6.974 4.649c-.081.054-.163.107-.246.159a1.203 1.203 0 0 0-.226-.199l-6.506-4.436a8.838 8.838 0 0 0-9.99.022l-.882.607a1.218 1.218 0 1 0 1.382 2.008l.882-.607a6.398 6.398 0 0 1 7.234-.016l5.566 3.795c-.955.301-1.952.472-2.963.503l-4.295.132a9.7 9.7 0 0 0-9.4 9.694V20.6a4.694 4.694 0 0 0 4.694 4.695zM35.547 2.438c-2.768 0-5.473.819-7.776 2.354l-6.974 4.649a13.406 13.406 0 0 1-7.026 2.246l-4.295.132a7.26 7.26 0 0 0-7.038 7.258V20.6a2.256 2.256 0 0 0 2.256 2.256h3.49a6.858 6.858 0 0 1 13.498 0h26.121a6.858 6.858 0 0 1 13.498 0h2.925c.407 0 .804-.12 1.142-.346l.779-.519a.31.31 0 0 0 .138-.258v-7.395a4.125 4.125 0 0 0-2.941-3.952l-.088-.026a20.669 20.669 0 0 1-7.15-3.801A18.233 18.233 0 0 0 44.56 2.438h-9.014zM19.352 24.076a4.42 4.42 0 1 1-8.838 0 4.42 4.42 0 0 1 8.838 0zm39.619 0a4.418 4.418 0 1 1-8.838 0 4.418 4.418 0 1 1 8.838 0z"/>
    </symbol>
    <symbol id="inside" viewBox="0 0 70 32">
      <path d="M8.182 25.294h-3.49a4.694 4.694 0 0 1-4.694-4.695v-1.523a9.699 9.699 0 0 1 9.4-9.694l4.295-.132c2.05-.063 4.042-.7 5.748-1.837l6.974-4.649A16.46 16.46 0 0 1 35.544 0h9.014c4.772 0 9.396 1.651 13.09 4.673a18.226 18.226 0 0 0 6.307 3.352l.088.026a6.564 6.564 0 0 1 4.678 6.288v7.395c0 .919-.459 1.777-1.223 2.286l-.779.519a4.502 4.502 0 0 1-2.495.755h-2.925a6.858 6.858 0 0 1-13.498 0H21.68a6.858 6.858 0 0 1-13.498 0zM27.768 4.791a14.021 14.021 0 0 1 7.776-2.354h9.014c4.209 0 8.288 1.456 11.546 4.121a20.66 20.66 0 0 0 7.15 3.801l.088.026a4.126 4.126 0 0 1 2.941 3.952v7.395c0 .103-.052.2-.138.258l-.779.519a2.055 2.055 0 0 1-1.142.346h-2.925a6.858 6.858 0 0 0-13.498 0H21.68a6.858 6.858 0 0 0-13.498 0h-3.49a2.257 2.257 0 0 1-2.256-2.256v-1.523a7.262 7.262 0 0 1 7.038-7.258l4.295-.132a13.406 13.406 0 0 0 7.026-2.246l6.974-4.649zM14.931 28.494a4.42 4.42 0 1 0 0-8.838 4.42 4.42 0 0 0 0 8.838zm39.619 0a4.42 4.42 0 1 0 0-8.838 4.42 4.42 0 0 0 0 8.838z"/>
      <path d="M32.074 6.856a5.41 5.41 0 1 0 0 10.82h8.381v1.816a.914.914 0 0 0 1.371.792l5.714-3.299a.61.61 0 0 0 0-1.056l-5.714-3.299a.914.914 0 0 0-1.371.792v1.816h-8.381a2.97 2.97 0 1 1 0-5.942h11.81a1.22 1.22 0 0 0 0-2.438h-11.81z"/>
    </symbol>
    <symbol id="key" viewBox="0 0 70 32">
      <path d="M4.693 25.296h3.49a6.858 6.858 0 0 0 13.498 0h26.121a6.858 6.858 0 0 0 13.498 0h2.925c.888 0 1.756-.263 2.495-.755l.779-.519a2.748 2.748 0 0 0 1.223-2.286v-7.395a6.566 6.566 0 0 0-4.678-6.288l-.088-.026a18.23 18.23 0 0 1-6.306-3.352A20.67 20.67 0 0 0 44.56.002h-9.014c-3.249 0-6.425.962-9.129 2.764l-6.974 4.649a10.968 10.968 0 0 1-5.748 1.837L9.4 9.384A9.7 9.7 0 0 0 0 19.078v1.523a4.694 4.694 0 0 0 4.694 4.695zM35.546 2.438c-2.768 0-5.474.819-7.776 2.354l-6.974 4.649a13.406 13.406 0 0 1-7.026 2.246l-4.295.132a7.26 7.26 0 0 0-7.038 7.258V20.6a2.256 2.256 0 0 0 2.256 2.256h3.49a6.858 6.858 0 0 1 13.498 0h26.121a6.858 6.858 0 0 1 13.498 0h2.925c.407 0 .804-.12 1.142-.346l.779-.519a.31.31 0 0 0 .138-.258v-7.395a4.125 4.125 0 0 0-2.941-3.952l-.088-.026a20.669 20.669 0 0 1-7.15-3.801 18.233 18.233 0 0 0-11.546-4.121h-9.014zM19.351 24.076a4.42 4.42 0 1 1-8.838 0 4.42 4.42 0 0 1 8.838 0zm39.619 0a4.418 4.418 0 1 1-8.838 0 4.418 4.418 0 1 1 8.838 0zM41.966 19.81c3.771 0 6.795-3.038 6.795-6.862 0-3.803-3.034-6.852-6.795-6.852-2.816 0-5.195 1.739-6.514 4.872L32.875 8.38a.708.708 0 0 0-1.018-.021l-2.639 2.661-1.86-1.896a.703.703 0 0 0-1.029 0l-3.273 3.3a.693.693 0 0 0-.01.964l1.746 1.823c.229.231.499.325.8.325H35.66c1.039 2.619 3.512 4.275 6.307 4.275zm2.306-5.019c-1.008 0-1.829-.828-1.829-1.844s.821-1.844 1.829-1.844a1.84 1.84 0 0 1 1.829 1.844c0 1.027-.81 1.844-1.829 1.844z"/>
    </symbol>
    <symbol id="light" viewBox="0 0 34 32">
      <path d="m16.88 1.122-.006-.001c-.197-.028-.431-.063-.792-.005-.183.029-.367.094-.464.131s-.278.109-.435.208a2.41 2.41 0 0 0-.324.239 2.221 2.221 0 0 0-.209.218l-.006.008c-1.194 1.398-3.256 5.113-3.256 14.081s2.062 12.683 3.256 14.081l.006.007c.033.039.108.127.209.218a2.29 2.29 0 0 0 .759.447c.097.037.281.102.464.131.361.058.596.024.792-.005l.006-.001c1.544-.224 5.558-.969 9.218-3.098 3.698-2.151 7.163-5.804 7.163-11.78s-3.464-9.63-7.163-11.78c-3.661-2.129-7.674-2.874-9.218-3.098zM13.902 16c0-8.419 1.893-11.521 2.606-12.391l.012.002c1.428.207 5.067.894 8.315 2.783 3.211 1.867 5.912 4.815 5.912 9.607s-2.701 7.74-5.912 9.607c-3.248 1.889-6.887 2.576-8.315 2.783l-.012.002c-.713-.87-2.606-3.972-2.606-12.392zM11.425 3.314H1.257a1.257 1.257 0 0 0 0 2.514h9.123c.331-1.046.693-1.87 1.045-2.514zM9.627 9.028h-8.37a1.257 1.257 0 0 0 0 2.514h8.046c.085-.913.195-1.749.324-2.514zm-.503 5.714H1.257a1.257 1.257 0 0 0 0 2.514h7.867a56.833 56.833 0 0 1 0-2.514zm1.256 11.429H1.257a1.257 1.257 0 0 0 0 2.514h10.168c-.352-.645-.714-1.469-1.045-2.514zm-1.077-5.714H1.257a1.257 1.257 0 0 0 0 2.514h8.37a34.189 34.189 0 0 1-.324-2.514z"/>
    </symbol>
    <symbol id="minus" viewBox="0 0 160 32">
      <path d="M156.8 15.999c0 7.078-.614 12.8-7.693 12.8H10.893c-7.066 0-7.693-5.722-7.693-12.8s.627-12.8 7.693-12.8H149.12c7.066 0 7.68 5.722 7.68 12.8z"/>
    </symbol>
    <symbol id="nav" viewBox="0 0 18 32">
      <path d="M9.067 8.701c.694 0 1.165-.483 1.165-1.226V2.21c0-.743-.471-1.226-1.165-1.226s-1.165.483-1.165 1.226v5.265c0 .743.471 1.226 1.165 1.226zM2.055 31.83c.657 0 1.326-.372 1.895-.917l4.794-4.596c.124-.124.223-.186.322-.186s.186.062.322.186l4.794 4.596c.57.545 1.239.917 1.895.917.979 0 1.71-.842 1.71-1.809 0-.558-.211-1.164-.508-1.92L11.085 12.38c-.496-1.239-1.127-1.846-2.019-1.846-.904 0-1.524.595-2.032 1.846L.84 28.101c-.297.756-.496 1.363-.496 1.92 0 .966.731 1.809 1.71 1.809zm1.214-3.494c-.037-.037-.037-.099-.012-.186l5.624-14.271c.05-.099.099-.173.186-.173s.136.087.173.173l5.624 14.271c.037.087.037.149-.012.186-.025.025-.087.037-.149-.025l-4.621-4.187c-.384-.359-.681-.558-1.016-.558-.347 0-.632.198-1.016.558l-4.621 4.187c-.037.037-.111.074-.161.025z"/>
    </symbol>
    <symbol id="outside" viewBox="0 0 70 32">
      <path d="M8.184 25.555h-3.49A4.694 4.694 0 0 1 0 20.86v-1.523a9.699 9.699 0 0 1 9.4-9.694l4.295-.132c2.05-.063 4.042-.7 5.748-1.837l1.032-.688a6.403 6.403 0 0 0-5.043-2.459h-4.767a1.22 1.22 0 0 1 0-2.438h4.767a8.835 8.835 0 0 1 7.075 3.542l3.91-2.606A16.46 16.46 0 0 1 35.546.261h9.014c4.772 0 9.396 1.651 13.09 4.673a18.226 18.226 0 0 0 6.307 3.352l.088.026a6.564 6.564 0 0 1 4.678 6.288v7.395c0 .919-.459 1.777-1.223 2.286l-.779.519a4.502 4.502 0 0 1-2.495.755h-2.925a6.858 6.858 0 0 1-13.498 0H21.682a6.858 6.858 0 0 1-13.498 0zM23.788 7.707l3.983-2.655a14.021 14.021 0 0 1 7.776-2.354h9.014c4.209 0 8.288 1.456 11.546 4.121a20.66 20.66 0 0 0 7.15 3.801l.088.026a4.126 4.126 0 0 1 2.941 3.952v7.395c0 .103-.052.2-.138.258l-.779.519a2.055 2.055 0 0 1-1.142.346h-2.925a6.858 6.858 0 0 0-13.498 0H21.683a6.858 6.858 0 0 0-13.498 0h-3.49a2.257 2.257 0 0 1-2.256-2.256v-1.523a7.262 7.262 0 0 1 7.038-7.258l4.295-.132a13.406 13.406 0 0 0 7.026-2.246l.959-.639.129.222a8.84 8.84 0 0 0 7.636 4.385h2.479v1.812c0 .439.449.734.852.559l6.999-3.031a.61.61 0 0 0 0-1.119l-6.999-3.031a.61.61 0 0 0-.852.559v1.812h-2.479a6.401 6.401 0 0 1-5.53-3.175l-.203-.348zm-8.855 21.048a4.42 4.42 0 1 0 0-8.838 4.42 4.42 0 0 0 0 8.838zm39.619 0a4.42 4.42 0 1 0 0-8.838 4.42 4.42 0 0 0 0 8.838z"/>
    </symbol>
    <symbol id="plus" viewBox="0 0 30 32">
      <path d="M29.867 16c0 1.348-.117 2.438-1.465 2.438H17.677v10.725c0 1.346-1.09 1.465-2.438 1.465s-2.438-.119-2.438-1.465V18.438H2.076C.73 18.438.611 17.348.611 16s.119-2.438 1.465-2.438h10.725V2.837c0-1.348 1.09-1.465 2.438-1.465s2.438.117 2.438 1.465v10.725h10.725c1.348 0 1.465 1.09 1.465 2.438z"/>
    </symbol>
    <symbol id="wheels" viewBox="0 0 34 32">
      <path d="M21.804 11.679c-1.489-1.393-3.466-2.161-5.574-2.161-2.106 0-4.087.768-5.574 2.161-3.077 2.875-3.077 7.554 0 10.429 1.487 1.395 3.468 2.161 5.574 2.161 2.108 0 4.085-.766 5.574-2.161 3.075-2.875 3.075-7.554 0-10.429zm-8.292 2.671a1.173 1.173 0 0 1-.813.318c-.311 0-.599-.114-.817-.318a1.028 1.028 0 0 1-.341-.761c0-.289.122-.56.341-.764.433-.41 1.198-.41 1.63 0a1.03 1.03 0 0 1 0 1.525zm-1.63 5.082c.433-.406 1.198-.406 1.63 0 .45.425.45 1.109 0 1.53a1.18 1.18 0 0 1-.813.316c-.311 0-.599-.114-.817-.316a1.036 1.036 0 0 1-.341-.764c0-.289.122-.558.341-.766zm1.534-2.54c0-.702.293-1.363.826-1.86s1.235-.771 1.988-.771c.749 0 1.457.274 1.988.771.529.497.822 1.157.822 1.86s-.293 1.365-.822 1.86a2.897 2.897 0 0 1-1.988.771 2.893 2.893 0 0 1-1.988-.771 2.523 2.523 0 0 1-.826-1.86zm5.191-3.303c0-.289.12-.56.338-.764.436-.41 1.2-.41 1.636 0 .215.204.336.475.336.764s-.122.56-.336.761c-.22.204-.508.318-.817.318s-.599-.114-.819-.318a1.028 1.028 0 0 1-.338-.761zm1.974 7.373c-.22.202-.508.316-.817.316s-.599-.114-.819-.316a1.04 1.04 0 0 1-.338-.764c0-.289.12-.558.338-.766.436-.406 1.196-.406 1.636 0a1.037 1.037 0 0 1 0 1.53z"/>
      <path d="M30.12 19.293h-3.77l-.014.06-.02.064c-.005.015-.009.034-.016.048-.004.012-.004.022-.012.034-.011.06-.027.119-.048.177-.004.015-.007.028-.014.045-.005.003-.005.003-.005.008-.004.007-.004.015-.009.022-.029.09-.059.181-.091.271a.315.315 0 0 0-.02.064.15.15 0 0 0-.016.034v.003c-.025.058-.045.117-.068.174-.025.072-.054.135-.084.207-.005.002-.005.01-.005.014v.005c0 .003-.004.003-.004.007-.014.03-.025.064-.039.095 0 .008-.005.01-.012.017-.021.06-.05.119-.08.177-.009.015-.012.032-.025.045a2.3 2.3 0 0 1-.1.214 16.979 16.979 0 0 1-.277.509 7.713 7.713 0 0 1-.27.423c-.02.042-.048.079-.075.117a.509.509 0 0 0-.045.064 2.432 2.432 0 0 1-.088.129c-.045.057-.088.117-.134.172-.03.049-.068.099-.107.147a4.498 4.498 0 0 1-.277.341 2.628 2.628 0 0 1-.15.169c-.052.065-.113.127-.172.189a.165.165 0 0 0-.032.033c0 .003-.004.003-.009.008v.003l-.002.003c-.014.015-.025.027-.043.038-.016.015-.03.033-.048.047a.157.157 0 0 1-.041.047c-.034.028-.063.06-.091.09-.007.007-.014.013-.02.022 0 0-.007.003-.007.008-.012.01-.02.022-.034.033v3.555h-1.203v-2.552c-.054.037-.105.075-.163.109a.885.885 0 0 1-.12.079.682.682 0 0 1-.114.079c-.034.027-.07.048-.105.069a.8.8 0 0 1-.113.067c-.011.012-.029.018-.039.027a4.74 4.74 0 0 1-.363.207c-.055.037-.116.067-.173.097a2.399 2.399 0 0 1-.22.112c-.054.027-.1.053-.154.075-.027.017-.059.03-.088.042-.048.022-.097.045-.145.062l-.207.095-.057.023a.1.1 0 0 1-.029.015c-.007.003-.016.007-.023.007-.005 0-.009 0-.012.003-.005 0-.006.005-.006.005-.002.003-.007.007-.011.007-.109.045-.222.087-.329.127-.068.027-.138.05-.209.074-.032.01-.066.022-.097.028-.02.008-.045.015-.063.023-.009.003-.021.007-.03.007-.027.012-.057.02-.084.032-.052.013-.105.032-.161.049-.041.015-.08.025-.12.037a15.892 15.892 0 0 1-.921.222c-.029.003-.059.01-.088.015-.009.003-.02.003-.032.007-.077.015-.157.03-.238.042h-.011c-.02.003-.041.008-.064.01-.013.003-.029.003-.047.008l-.146.023-.088.01a5.169 5.169 0 0 1-.368.04h-.011a8.68 8.68 0 0 1-.461.037c-.02 0-.045.003-.068.003-.089.003-.182.003-.27.005l-2.76 2.584-.854-.798 1.995-1.865a11.133 11.133 0 0 1-.815-.127c-.141-.03-.281-.062-.422-.094a5.094 5.094 0 0 1-.47-.124c-.093-.022-.188-.054-.281-.082a2.835 2.835 0 0 1-.197-.065c-.064-.018-.134-.044-.197-.067l-.215-.082a5.197 5.197 0 0 1-.195-.075 5.128 5.128 0 0 1-.402-.174 1.476 1.476 0 0 1-.116-.052c-.061-.027-.118-.052-.173-.084l-.093-.048a.057.057 0 0 1-.023-.015c-.007-.003-.013-.003-.021-.007 0-.005-.002-.005-.002-.005-.012-.008-.025-.01-.038-.018a.704.704 0 0 1-.113-.057 1.904 1.904 0 0 1-.2-.105c-.097-.052-.193-.109-.286-.161-.091-.057-.184-.112-.277-.172a9.428 9.428 0 0 1-.349-.238 3.063 3.063 0 0 1-.164-.117c-.111-.082-.218-.161-.322-.244 0-.003-.005-.003-.009-.007-.02-.017-.039-.03-.059-.052-.012-.01-.021-.014-.029-.023-.004-.003-.013-.012-.016-.012l-.043-.033c-.105-.087-.211-.174-.311-.263H5.134v-1.129h2.817a4.81 4.81 0 0 1-.234-.296 8.356 8.356 0 0 1-.222-.304c-.055-.074-.107-.156-.161-.234a8.089 8.089 0 0 1-.284-.462 3.347 3.347 0 0 1-.134-.241c-.027-.052-.054-.105-.084-.157a6.144 6.144 0 0 1-.288-.609 9.118 9.118 0 0 1-.245-.635c-.005-.012-.009-.018-.013-.03a2.763 2.763 0 0 1-.064-.202c-.02-.072-.045-.14-.064-.211l-.059-.211a7.078 7.078 0 0 1-.082-.334c-.007-.022-.011-.049-.016-.079-.007-.027-.011-.053-.016-.079-.016-.062-.027-.12-.039-.177 0-.007 0-.015-.004-.018a5.412 5.412 0 0 1-.052-.323 6.073 6.073 0 0 1-.045-.346s0-.003-.004-.007a8.88 8.88 0 0 1-.032-.43c-.005-.022-.005-.045-.011-.067-.002-.072-.002-.147-.002-.219l-2.8-2.616.855-.796 2.02 1.891c.038-.259.086-.515.141-.773.399-1.783 1.321-3.427 2.699-4.763v-3.56h1.205v2.552a10.709 10.709 0 0 1 3.947-1.728V2.875c-3.152.46-6.06 1.833-8.358 3.982-5.914 5.532-5.914 14.533 0 20.065 2.866 2.679 6.674 4.152 10.723 4.152 4.053 0 7.861-1.473 10.725-4.152 2.303-2.154 3.702-4.838 4.212-7.633h-1.046z"/>
      <path d="M34.286 16.959c.018-4.348-1.743-8.703-5.281-12.014C25.637 1.796 21.182.045 16.43 0v7.129c.113.003.22.003.334.007.023.005.043.005.068.008.156.008.309.015.466.03h.004c.265.027.526.064.785.109l.146.022a12.471 12.471 0 0 1 .919.212c.193.052.383.109.57.172l.327.112c.164.06.324.125.486.192.123.057.249.109.374.169a13.833 13.833 0 0 1 .802.42c.063.038.123.077.188.119.189.112.379.231.558.36.07.049.141.102.211.15.163.124.324.248.483.376.075.067.156.13.232.199.075.067.157.132.227.199.061.055.118.109.17.166.016.012.028.022.032.033.007.003.013.003.005.007.079.075.156.159.232.237.02.018.036.035.052.053.061.064.12.125.174.191a2.2 2.2 0 0 1 .213.251c.059.06.107.125.154.189.021.022.043.045.054.07.061.069.109.135.157.207.009.005.012.005.009.007a.726.726 0 0 1 .068.095c.011.012.02.022.025.037.054.08.111.156.163.238.005.003.005.003.005.007.032.05.064.095.095.144s.057.094.084.144a.16.16 0 0 1 .029.044c.016.03.038.06.052.09.021.03.038.06.05.089.036.054.068.11.097.167.068.115.129.232.181.353l.004.003c.007.012.016.023.016.035.007.005.012.018.012.025.02.042.039.079.055.12a.342.342 0 0 1 .036.079c.021.04.038.08.052.117.009.012.012.022.018.034.005.018.014.038.023.059.048.11.093.224.138.336.043.105.079.211.113.316.039.105.072.214.102.324.054.156.095.309.131.473.039.16.077.323.104.483.029.137.048.271.068.41.023.192.045.388.061.587.012.167.02.339.025.507.004.06.007.12.007.181 0 .022-.004.043-.004.067h7.616zm-3.924-4.336c.735 0 1.33.557 1.33 1.242 0 .689-.595 1.246-1.33 1.246s-1.332-.557-1.332-1.246c0-.686.597-1.242 1.332-1.242zM19.601 5.114c-.737 0-1.334-.559-1.334-1.244 0-.689.597-1.246 1.334-1.246.735 0 1.33.557 1.33 1.246 0 .686-.595 1.244-1.33 1.244z"/>
    </symbol>
    <symbol id="arrow1" viewBox="0 0 32 32">
      <path stroke-linejoin="round" stroke-linecap="round" stroke-width="5.333" d="M2.286 29.714 29.715 2.285m-.001.001H9.143m20.571 0v20.571"/>
    </symbol>
  </defs>
</svg>
